<svg version="1.1" id="Layer_1" xmlns="http://www.w3.org/2000/svg" xmlns:xlink="http://www.w3.org/1999/xlink" x="0px" y="0px"
	 width="100%" viewBox="0 0 194 174" enable-background="new 0 0 194 174" xml:space="preserve">
<path fill="#FEFDFD" opacity="1.000000" stroke="none" 
	d="
M123.000000,175.000000 
	C105.979103,175.000000 88.958214,175.000000 71.424568,174.670975 
	C69.924278,173.573242 68.936737,172.804535 67.949203,172.035828 
	C67.714668,172.308762 67.480133,172.581680 67.245605,172.854614 
	C67.830406,173.569733 68.415207,174.284866 69.000000,175.000000 
	C46.333324,175.000000 23.666649,175.000000 1.000000,175.000000 
	C1.000000,172.969193 1.000000,170.982498 1.356751,168.462189 
	C4.413652,166.401459 7.113802,164.874344 9.813952,163.347229 
	C9.594064,162.948807 9.374174,162.550385 9.154285,162.151947 
	C6.436191,163.434631 3.718096,164.717316 1.000000,166.000000 
	C1.000000,111.045853 1.000000,56.091705 1.000000,1.068779 
	C65.566833,1.068779 130.133774,1.068779 195.000000,1.068779 
	C195.000000,56.020531 195.000000,111.041611 194.682281,166.392075 
	C189.609467,164.094025 184.854385,161.466568 180.099289,158.839111 
	C179.785019,159.462936 179.470734,160.086761 179.156464,160.710571 
	C184.437637,163.140381 189.718826,165.570190 195.000000,168.000000 
	C195.000000,170.319824 195.000000,172.639633 195.000000,175.000000 
	C172.312454,175.000000 149.624878,175.000000 126.664124,174.726471 
	C128.497421,173.005554 130.603897,171.558167 132.710373,170.110794 
	C132.389725,169.659103 132.069077,169.207413 131.748428,168.755707 
	C128.832291,170.837143 125.916145,172.918579 123.000000,175.000000 
M102.100838,133.493683 
	C102.100838,125.626869 102.100838,117.760048 102.100838,109.893234 
	C102.556595,109.673111 103.012352,109.452980 103.468109,109.232857 
	C106.489090,112.520096 109.402542,115.915039 112.559235,119.066330 
	C116.210030,122.710899 119.692215,122.972229 122.583435,120.145905 
	C125.410660,117.382164 125.151993,113.693016 121.635254,110.107437 
	C114.992332,103.334465 108.281609,96.627129 101.541809,89.950310 
	C97.294785,85.742966 94.243607,85.695938 89.972252,89.893494 
	C83.322166,96.428680 76.754120,103.048531 70.217941,109.698006 
	C66.400841,113.581276 66.017250,117.254997 68.930077,120.119240 
	C71.914619,123.054001 75.433113,122.634613 79.364044,118.835411 
	C82.384384,115.916275 85.373848,112.965202 88.808540,109.606361 
	C88.808540,118.754639 88.808540,126.949104 88.808540,135.501297 
	C86.552673,135.222702 84.695877,135.219208 82.967941,134.745590 
	C61.959137,128.987534 47.713902,115.982330 41.245583,95.031265 
	C40.022270,91.068916 38.488129,89.211807 34.656952,91.332054 
	C33.503857,93.145485 31.837666,94.285866 30.660650,95.805199 
	C29.187857,97.706314 26.900814,100.030037 27.078930,101.978065 
	C27.944134,111.440643 31.858740,113.916771 40.746845,111.458466 
	C43.897827,114.509476 45.889503,117.382484 41.536045,121.358368 
	C40.500671,122.303940 40.847359,125.718307 41.665386,127.484344 
	C42.588451,129.477127 44.770756,130.881760 46.388088,132.558884 
	C49.225616,135.501312 52.138210,135.782303 54.934994,132.612793 
	C56.833111,130.461716 58.528557,130.387619 60.937550,131.996780 
	C63.346230,133.605743 63.399559,135.069046 62.780506,137.768372 
	C62.299183,139.867126 62.981113,143.416885 64.490822,144.587738 
	C71.943192,150.367340 76.415619,149.237228 80.869370,141.212524 
	C87.351753,141.542953 87.004547,141.719376 89.928955,147.474899 
	C90.965462,149.514847 94.059143,151.462997 96.372101,151.668304 
	C99.519501,151.947693 101.925690,149.560608 102.047554,145.978500 
	C102.177689,142.152863 102.092262,138.319870 102.100838,133.493683 
M31.621361,45.909393 
	C30.342297,48.393757 28.902626,50.810276 27.818394,53.376942 
	C25.714373,58.357716 26.557663,59.960320 31.188799,62.608109 
	C32.457325,63.333374 33.803825,65.582176 33.587891,66.877296 
	C33.209530,69.146576 33.705627,72.643494 29.637720,72.707466 
	C25.341335,72.775032 22.978178,75.298294 23.191128,79.321053 
	C23.423584,83.712318 26.446053,85.398094 30.796106,85.343498 
	C40.953053,85.216011 51.112755,85.290878 61.271210,85.324036 
	C62.440048,85.327850 63.608059,85.586777 66.422852,85.925606 
	C61.831890,90.213417 58.159203,93.333450 54.866879,96.813347 
	C52.064232,99.775665 52.010895,103.260315 55.070255,106.122795 
	C57.970371,108.836304 61.151703,108.494247 63.942204,105.721687 
	C71.264442,98.446526 78.595039,91.178139 85.807922,83.795311 
	C88.885353,80.645370 88.740570,77.162148 85.682259,74.054840 
	C78.442871,66.699440 71.129555,59.416023 63.787189,52.163155 
	C60.959347,49.369785 57.766232,49.253098 54.928318,52.000378 
	C52.098560,54.739777 52.203377,57.987106 54.654232,60.962818 
	C56.340412,63.010098 58.339680,64.799232 60.195625,66.707047 
	C61.827877,68.384911 63.455418,70.067368 65.484848,72.160072 
	C56.117630,72.160072 47.800476,72.160072 39.460659,72.160072 
	C41.482052,50.131519 57.729481,30.800989 79.681496,24.319036 
	C83.551933,23.176180 85.028030,21.518526 83.568871,17.937628 
	C81.828064,16.531607 80.595009,14.647676 78.929451,13.297154 
	C77.181152,11.879547 74.924629,9.870277 73.052467,10.029341 
	C63.655277,10.827749 61.035599,14.899160 63.620262,23.825481 
	C60.563232,26.581696 57.775951,29.137468 53.740253,24.574287 
	C52.806961,23.519005 49.263527,23.678907 47.646011,24.580305 
	C45.268337,25.905315 43.059238,28.123512 41.705410,30.491282 
	C40.774033,32.120213 40.485928,35.661617 41.510616,36.599136 
	C46.151649,40.845364 43.623314,43.703148 41.211555,46.155163 
	C37.691525,45.885612 34.978481,45.677856 31.621361,45.909393 
M150.217850,30.734797 
	C148.237137,28.714727 146.549927,26.165531 144.178406,24.849981 
	C142.430878,23.880585 138.762589,23.538645 137.726578,24.619629 
	C133.565109,28.961756 130.894974,26.658272 127.988731,23.588989 
	C130.730621,14.900017 130.543777,14.517685 121.981659,11.002284 
	C121.827614,10.939032 121.669983,10.884583 121.515327,10.822740 
	C116.221817,8.705935 114.714851,9.410586 111.939674,14.355399 
	C111.280037,15.530731 109.113670,16.844269 108.006439,16.577093 
	C105.790268,16.042330 102.151711,16.981709 102.094002,12.802005 
	C102.031265,8.258097 99.442902,5.821717 95.151375,6.212359 
	C90.785477,6.609769 89.201256,9.887956 89.220909,14.074444 
	C89.261574,22.736004 89.230804,31.397898 89.229607,40.059654 
	C89.229256,42.598888 89.229553,45.138123 89.229553,47.677361 
	C88.771629,47.842270 88.313705,48.007179 87.855782,48.172089 
	C84.799049,44.925179 81.855171,41.561672 78.654541,38.463413 
	C75.304893,35.220909 71.714966,35.134369 68.928688,37.876709 
	C66.202576,40.559834 66.290154,44.236610 69.536819,47.572304 
	C76.390709,54.614113 83.331993,61.573566 90.351372,68.450508 
	C94.164070,72.185844 97.406601,72.139244 101.209648,68.394447 
	C107.971657,61.736012 114.659843,55.001678 121.319672,48.240734 
	C125.128639,44.373924 125.505424,40.682812 122.561272,37.828449 
	C119.571373,34.929749 116.157066,35.389565 112.147003,39.272797 
	C109.011795,42.308830 105.907089,45.376358 102.374023,48.836086 
	C102.374023,39.614216 102.374023,31.337919 102.374023,22.454159 
	C119.120590,24.310312 131.784561,32.544697 142.342133,45.659660 
	C144.680771,43.047283 146.946594,41.161064 148.342499,38.767513 
	C149.624619,36.569103 149.969528,33.824108 150.217850,30.734797 
M174.824158,104.977753 
	C175.412964,98.617599 176.001770,92.257439 176.611160,85.674980 
	C180.905563,85.224655 186.562134,85.901443 186.698837,79.179176 
	C186.842743,72.104118 180.907562,72.861893 176.000427,72.300964 
	C176.000427,67.415497 176.030640,62.779320 175.992188,58.143719 
	C175.951294,53.215084 173.606354,50.270542 169.723740,50.164677 
	C165.702850,50.055042 163.077347,53.183941 163.007919,58.322464 
	C162.945648,62.932865 162.994827,67.544769 162.994827,72.290855 
	C161.349915,72.434280 160.207703,72.613647 159.064468,72.620461 
	C152.236588,72.661179 145.406891,72.578217 138.581039,72.707970 
	C134.518646,72.785194 132.341492,75.530579 132.380692,79.143974 
	C132.417145,82.503960 134.557144,85.024925 138.349411,85.361916 
	C139.812210,85.491913 141.279694,85.568970 143.092636,85.694145 
	C143.092636,90.771706 142.988785,95.587891 143.121796,100.397537 
	C143.255173,105.220146 145.962158,108.135986 149.972458,107.806587 
	C154.488312,107.435684 156.179092,104.654991 156.067245,100.316971 
	C155.943619,95.522018 156.039001,90.721428 156.039001,85.747353 
	C158.558105,85.747353 160.600555,85.747353 162.995117,85.747353 
	C162.995117,90.696274 162.527878,95.404984 163.175720,99.954918 
	C163.546127,102.556244 165.194290,105.751396 167.282822,107.068047 
	C168.751007,107.993607 171.930817,106.204079 174.824158,104.977753 
M134.775238,94.773788 
	C129.470139,89.784607 124.165047,84.795425 118.267319,79.248901 
	C124.954903,72.745201 130.853989,67.163071 136.561844,61.391804 
	C139.392014,58.530178 139.818817,55.233089 136.737152,52.152584 
	C133.658020,49.074608 130.403122,49.480324 127.504036,52.329788 
	C120.144302,59.563538 112.852249,66.868156 105.639420,74.248314 
	C102.938980,77.011406 102.648422,80.536598 105.243011,83.262421 
	C112.698677,91.095146 120.344505,98.764381 128.269196,106.116753 
	C129.672714,107.418915 133.118256,107.723442 134.996109,106.957352 
	C136.719055,106.254448 138.621033,103.462540 138.582581,101.630112 
	C138.537720,99.492409 136.472839,97.397102 134.775238,94.773788 
M113.889671,146.864548 
	C117.966957,150.259933 121.414871,146.838379 125.029434,145.759277 
	C129.177856,144.520782 130.668869,141.582260 128.920258,137.637466 
	C127.721329,134.932739 128.322510,133.513474 130.683624,131.947601 
	C133.146484,130.314255 134.764328,130.668518 136.683273,132.742752 
	C139.263245,135.531555 141.938583,135.495728 144.903091,132.809540 
	C153.249207,125.247009 153.353271,123.981758 145.246460,115.969528 
	C144.214417,114.949547 143.086990,114.026077 141.805634,112.880829 
	C133.781876,123.042229 124.069687,130.383987 111.763878,133.665283 
	C107.628990,134.767822 106.108231,136.576538 107.535828,140.602356 
	C107.904907,140.384308 108.273987,140.166260 108.643066,139.948212 
	C110.221054,142.051880 111.799042,144.155548 113.889671,146.864548 
M150.252808,55.594723 
	C145.118576,56.501003 142.398911,59.423531 143.362595,63.200413 
	C144.180847,66.407387 146.274277,68.916626 149.666061,68.064445 
	C151.975327,67.484245 154.937195,65.587364 155.687500,63.566486 
	C157.066162,59.853245 154.908844,56.947609 150.252808,55.594723 
M139.710052,164.150589 
	C137.878601,165.388092 136.047150,166.625580 134.215714,167.863083 
	C134.471634,168.269287 134.727554,168.675507 134.983475,169.081726 
	C140.142639,166.098724 145.301819,163.115738 150.460999,160.132736 
	C150.208862,159.680435 149.956711,159.228149 149.704575,158.775848 
	C146.594345,160.463043 143.484100,162.150238 139.710052,164.150589 
M50.668694,161.852432 
	C48.780678,160.872116 46.892666,159.891815 45.004650,158.911514 
	C44.775242,159.366669 44.545830,159.821808 44.316418,160.276962 
	C48.878113,162.834808 53.439812,165.392654 58.001511,167.950500 
	C58.251400,167.521072 58.501289,167.091660 58.751179,166.662231 
	C56.278572,165.157898 53.805969,163.653549 50.668694,161.852432 
M65.116364,170.140793 
	C63.674225,169.491577 62.232086,168.842361 60.789948,168.193146 
	C60.626823,168.794464 60.463699,169.395782 60.300575,169.997116 
	C62.049786,170.199570 63.799000,170.402039 65.116364,170.140793 
M11.405375,161.183014 
	C12.762460,160.894119 14.119545,160.605225 15.476629,160.316330 
	C15.321795,159.840805 15.166959,159.365280 15.012124,158.889755 
	C13.830445,159.448914 12.648767,160.008087 11.405375,161.183014 
z"/>
<path fill="#F4F1FE" opacity="1.000000" stroke="none" 
	d="
M195.000000,167.750000 
	C189.718826,165.570190 184.437637,163.140381 179.156464,160.710571 
	C179.470734,160.086761 179.785019,159.462936 180.099289,158.839111 
	C184.854385,161.466568 189.609467,164.094025 194.682281,166.860733 
	C195.000000,167.000000 195.000000,167.500000 195.000000,167.750000 
z"/>
<path fill="#F3F1FE" opacity="1.000000" stroke="none" 
	d="
M123.375000,175.000000 
	C125.916145,172.918579 128.832291,170.837143 131.748428,168.755707 
	C132.069077,169.207413 132.389725,169.659103 132.710373,170.110794 
	C130.603897,171.558167 128.497421,173.005554 126.195465,174.726471 
	C125.250000,175.000000 124.500000,175.000000 123.375000,175.000000 
z"/>
<path fill="#F3F0FE" opacity="1.000000" stroke="none" 
	d="
M1.000000,166.333328 
	C3.718096,164.717316 6.436191,163.434631 9.154285,162.151947 
	C9.374174,162.550385 9.594064,162.948807 9.813952,163.347229 
	C7.113802,164.874344 4.413652,166.401459 1.356751,167.964279 
	C1.000000,167.555557 1.000000,167.111099 1.000000,166.333328 
z"/>
<path fill="#F4F1FE" opacity="1.000000" stroke="none" 
	d="
M69.333336,175.000000 
	C68.415207,174.284866 67.830406,173.569733 67.245605,172.854614 
	C67.480133,172.581680 67.714668,172.308762 67.949203,172.035828 
	C68.936737,172.804535 69.924278,173.573242 70.955910,174.670975 
	C70.555557,175.000000 70.111107,175.000000 69.333336,175.000000 
z"/>
<path fill="#F5893A" opacity="1.000000" stroke="none" 
	d="
M102.100883,133.991882 
	C102.092262,138.319870 102.177689,142.152863 102.047554,145.978500 
	C101.925690,149.560608 99.519501,151.947693 96.372101,151.668304 
	C94.059143,151.462997 90.965462,149.514847 89.928955,147.474899 
	C87.004547,141.719376 87.351753,141.542953 80.869370,141.212524 
	C76.415619,149.237228 71.943192,150.367340 64.490822,144.587738 
	C62.981113,143.416885 62.299183,139.867126 62.780506,137.768372 
	C63.399559,135.069046 63.346230,133.605743 60.937550,131.996780 
	C58.528557,130.387619 56.833111,130.461716 54.934994,132.612793 
	C52.138210,135.782303 49.225616,135.501312 46.388088,132.558884 
	C44.770756,130.881760 42.588451,129.477127 41.665386,127.484344 
	C40.847359,125.718307 40.500671,122.303940 41.536045,121.358368 
	C45.889503,117.382484 43.897827,114.509476 40.746376,111.458496 
	C31.858740,113.916771 27.944134,111.440643 27.078930,101.978065 
	C26.900814,100.030037 29.187857,97.706314 30.660650,95.805199 
	C31.837666,94.285866 33.503857,93.145485 34.656952,91.332054 
	C38.488129,89.211807 40.022270,91.068916 41.245583,95.031265 
	C47.713902,115.982330 61.959137,128.987534 82.967941,134.745590 
	C84.695877,135.219208 86.552673,135.222702 88.808540,135.501297 
	C88.808540,126.949104 88.808540,118.754639 88.808540,109.606361 
	C85.373848,112.965202 82.384384,115.916275 79.364044,118.835411 
	C75.433113,122.634613 71.914619,123.054001 68.930077,120.119240 
	C66.017250,117.254997 66.400841,113.581276 70.217941,109.698006 
	C76.754120,103.048531 83.322166,96.428680 89.972252,89.893494 
	C94.243607,85.695938 97.294785,85.742966 101.541809,89.950310 
	C108.281609,96.627129 114.992332,103.334465 121.635254,110.107437 
	C125.151993,113.693016 125.410660,117.382164 122.583435,120.145905 
	C119.692215,122.972229 116.210030,122.710899 112.559235,119.066330 
	C109.402542,115.915039 106.489090,112.520096 103.468109,109.232857 
	C103.012352,109.452980 102.556595,109.673111 102.100838,109.893234 
	C102.100838,117.760048 102.100838,125.626869 102.100883,133.991882 
z"/>
<path fill="#F58838" opacity="1.000000" stroke="none" 
	d="
M31.943399,45.689751 
	C34.978481,45.677856 37.691525,45.885612 41.211555,46.155163 
	C43.623314,43.703148 46.151649,40.845364 41.510616,36.599136 
	C40.485928,35.661617 40.774033,32.120213 41.705410,30.491282 
	C43.059238,28.123512 45.268337,25.905315 47.646011,24.580305 
	C49.263527,23.678907 52.806961,23.519005 53.740253,24.574287 
	C57.775951,29.137468 60.563232,26.581696 63.620262,23.825481 
	C61.035599,14.899160 63.655277,10.827749 73.052467,10.029341 
	C74.924629,9.870277 77.181152,11.879547 78.929451,13.297154 
	C80.595009,14.647676 81.828064,16.531607 83.568871,17.937628 
	C85.028030,21.518526 83.551933,23.176180 79.681496,24.319036 
	C57.729481,30.800989 41.482052,50.131519 39.460659,72.160072 
	C47.800476,72.160072 56.117630,72.160072 65.484848,72.160072 
	C63.455418,70.067368 61.827877,68.384911 60.195625,66.707047 
	C58.339680,64.799232 56.340412,63.010098 54.654232,60.962818 
	C52.203377,57.987106 52.098560,54.739777 54.928318,52.000378 
	C57.766232,49.253098 60.959347,49.369785 63.787189,52.163155 
	C71.129555,59.416023 78.442871,66.699440 85.682259,74.054840 
	C88.740570,77.162148 88.885353,80.645370 85.807922,83.795311 
	C78.595039,91.178139 71.264442,98.446526 63.942204,105.721687 
	C61.151703,108.494247 57.970371,108.836304 55.070255,106.122795 
	C52.010895,103.260315 52.064232,99.775665 54.866879,96.813347 
	C58.159203,93.333450 61.831890,90.213417 66.422852,85.925606 
	C63.608059,85.586777 62.440048,85.327850 61.271210,85.324036 
	C51.112755,85.290878 40.953053,85.216011 30.796106,85.343498 
	C26.446053,85.398094 23.423584,83.712318 23.191128,79.321053 
	C22.978178,75.298294 25.341335,72.775032 29.637720,72.707466 
	C33.705627,72.643494 33.209530,69.146576 33.587891,66.877296 
	C33.803825,65.582176 32.457325,63.333374 31.188799,62.608109 
	C26.557663,59.960320 25.714373,58.357716 27.818394,53.376942 
	C28.902626,50.810276 30.342297,48.393757 31.943399,45.689751 
z"/>
<path fill="#F5893A" opacity="1.000000" stroke="none" 
	d="
M150.472595,31.027359 
	C149.969528,33.824108 149.624619,36.569103 148.342499,38.767513 
	C146.946594,41.161064 144.680771,43.047283 142.342133,45.659660 
	C131.784561,32.544697 119.120590,24.310312 102.374023,22.454159 
	C102.374023,31.337919 102.374023,39.614216 102.374023,48.836086 
	C105.907089,45.376358 109.011795,42.308830 112.147003,39.272797 
	C116.157066,35.389565 119.571373,34.929749 122.561272,37.828449 
	C125.505424,40.682812 125.128639,44.373924 121.319672,48.240734 
	C114.659843,55.001678 107.971657,61.736012 101.209648,68.394447 
	C97.406601,72.139244 94.164070,72.185844 90.351372,68.450508 
	C83.331993,61.573566 76.390709,54.614113 69.536819,47.572304 
	C66.290154,44.236610 66.202576,40.559834 68.928688,37.876709 
	C71.714966,35.134369 75.304893,35.220909 78.654541,38.463413 
	C81.855171,41.561672 84.799049,44.925179 87.855782,48.172089 
	C88.313705,48.007179 88.771629,47.842270 89.229553,47.677361 
	C89.229553,45.138123 89.229256,42.598888 89.229607,40.059654 
	C89.230804,31.397898 89.261574,22.736004 89.220909,14.074444 
	C89.201256,9.887956 90.785477,6.609769 95.151375,6.212359 
	C99.442902,5.821717 102.031265,8.258097 102.094002,12.802005 
	C102.151711,16.981709 105.790268,16.042330 108.006439,16.577093 
	C109.113670,16.844269 111.280037,15.530731 111.939674,14.355399 
	C114.714851,9.410586 116.221817,8.705935 121.515327,10.822740 
	C121.669983,10.884583 121.827614,10.939032 121.981659,11.002284 
	C130.543777,14.517685 130.730621,14.900017 127.988731,23.588989 
	C130.894974,26.658272 133.565109,28.961756 137.726578,24.619629 
	C138.762589,23.538645 142.430878,23.880585 144.178406,24.849981 
	C146.549927,26.165531 148.237137,28.714727 150.472595,31.027359 
z"/>
<path fill="#3A3981" opacity="1.000000" stroke="none" 
	d="
M174.585236,105.302338 
	C171.930817,106.204079 168.751007,107.993607 167.282822,107.068047 
	C165.194290,105.751396 163.546127,102.556244 163.175720,99.954918 
	C162.527878,95.404984 162.995117,90.696274 162.995117,85.747353 
	C160.600555,85.747353 158.558105,85.747353 156.039001,85.747353 
	C156.039001,90.721428 155.943619,95.522018 156.067245,100.316971 
	C156.179092,104.654991 154.488312,107.435684 149.972458,107.806587 
	C145.962158,108.135986 143.255173,105.220146 143.121796,100.397537 
	C142.988785,95.587891 143.092636,90.771706 143.092636,85.694145 
	C141.279694,85.568970 139.812210,85.491913 138.349411,85.361916 
	C134.557144,85.024925 132.417145,82.503960 132.380692,79.143974 
	C132.341492,75.530579 134.518646,72.785194 138.581039,72.707970 
	C145.406891,72.578217 152.236588,72.661179 159.064468,72.620461 
	C160.207703,72.613647 161.349915,72.434280 162.994827,72.290855 
	C162.994827,67.544769 162.945648,62.932865 163.007919,58.322464 
	C163.077347,53.183941 165.702850,50.055042 169.723740,50.164677 
	C173.606354,50.270542 175.951294,53.215084 175.992188,58.143719 
	C176.030640,62.779320 176.000427,67.415497 176.000427,72.300964 
	C180.907562,72.861893 186.842743,72.104118 186.698837,79.179176 
	C186.562134,85.901443 180.905563,85.224655 176.611160,85.674980 
	C176.001770,92.257439 175.412964,98.617599 174.585236,105.302338 
z"/>
<path fill="#3F3E84" opacity="1.000000" stroke="none" 
	d="
M135.029846,95.028595 
	C136.472839,97.397102 138.537720,99.492409 138.582581,101.630112 
	C138.621033,103.462540 136.719055,106.254448 134.996109,106.957352 
	C133.118256,107.723442 129.672714,107.418915 128.269196,106.116753 
	C120.344505,98.764381 112.698677,91.095146 105.243011,83.262421 
	C102.648422,80.536598 102.938980,77.011406 105.639420,74.248314 
	C112.852249,66.868156 120.144302,59.563538 127.504036,52.329788 
	C130.403122,49.480324 133.658020,49.074608 136.737152,52.152584 
	C139.818817,55.233089 139.392014,58.530178 136.561844,61.391804 
	C130.853989,67.163071 124.954903,72.745201 118.267319,79.248901 
	C124.165047,84.795425 129.470139,89.784607 135.029846,95.028595 
z"/>
<path fill="#F58A3B" opacity="1.000000" stroke="none" 
	d="
M113.633347,146.561890 
	C111.799042,144.155548 110.221054,142.051880 108.643066,139.948212 
	C108.273987,140.166260 107.904907,140.384308 107.535828,140.602356 
	C106.108231,136.576538 107.628990,134.767822 111.763878,133.665283 
	C124.069687,130.383987 133.781876,123.042229 141.805634,112.880829 
	C143.086990,114.026077 144.214417,114.949547 145.246460,115.969528 
	C153.353271,123.981758 153.249207,125.247009 144.903091,132.809540 
	C141.938583,135.495728 139.263245,135.531555 136.683273,132.742752 
	C134.764328,130.668518 133.146484,130.314255 130.683624,131.947601 
	C128.322510,133.513474 127.721329,134.932739 128.920258,137.637466 
	C130.668869,141.582260 129.177856,144.520782 125.029434,145.759277 
	C121.414871,146.838379 117.966957,150.259933 113.633347,146.561890 
z"/>
<path fill="#3F3E85" opacity="1.000000" stroke="none" 
	d="
M150.605469,55.677574 
	C154.908844,56.947609 157.066162,59.853245 155.687500,63.566486 
	C154.937195,65.587364 151.975327,67.484245 149.666061,68.064445 
	C146.274277,68.916626 144.180847,66.407387 143.362595,63.200413 
	C142.398911,59.423531 145.118576,56.501003 150.605469,55.677574 
z"/>
<path fill="#F3F1FE" opacity="1.000000" stroke="none" 
	d="
M140.041962,163.994019 
	C143.484100,162.150238 146.594345,160.463043 149.704575,158.775848 
	C149.956711,159.228149 150.208862,159.680435 150.460999,160.132736 
	C145.301819,163.115738 140.142639,166.098724 134.983475,169.081726 
	C134.727554,168.675507 134.471634,168.269287 134.215714,167.863083 
	C136.047150,166.625580 137.878601,165.388092 140.041962,163.994019 
z"/>
<path fill="#F4F1FE" opacity="1.000000" stroke="none" 
	d="
M51.001030,162.000824 
	C53.805969,163.653549 56.278572,165.157898 58.751179,166.662231 
	C58.501289,167.091660 58.251400,167.521072 58.001511,167.950500 
	C53.439812,165.392654 48.878113,162.834808 44.316418,160.276962 
	C44.545830,159.821808 44.775242,159.366669 45.004650,158.911514 
	C46.892666,159.891815 48.780678,160.872116 51.001030,162.000824 
z"/>
<path fill="#F4F1FE" opacity="1.000000" stroke="none" 
	d="
M65.332291,170.372650 
	C63.799000,170.402039 62.049786,170.199570 60.300575,169.997116 
	C60.463699,169.395782 60.626823,168.794464 60.789948,168.193146 
	C62.232086,168.842361 63.674225,169.491577 65.332291,170.372650 
z"/>
<path fill="#F3F0FE" opacity="1.000000" stroke="none" 
	d="
M11.436232,160.875122 
	C12.648767,160.008087 13.830445,159.448914 15.012124,158.889755 
	C15.166959,159.365280 15.321795,159.840805 15.476629,160.316330 
	C14.119545,160.605225 12.762460,160.894119 11.436232,160.875122 
z"/>
</svg>